<svg width="107" height="66" viewBox="0 0 107 66" fill="none" xmlns="http://www.w3.org/2000/svg">
<g filter="url(#filter0_d_427_278)">
<rect x="4" width="99" height="58" rx="28" fill="white"/>
</g>
<path d="M81.4351 43.3468V16.694C83.3018 16.694 85.4054 16.5569 87.7449 16.2838V27.0427C89.1042 24.4526 91.0231 23.1569 93.5016 23.1569C96.4288 23.1569 97.8925 24.6404 97.8925 27.6084V43.3468H91.5827V28.3901C91.5827 27.2575 91.248 26.6918 90.5798 26.6918C89.8876 26.6918 89.2422 27.4173 88.6435 28.8684C88.0437 30.3206 87.7449 31.8785 87.7449 33.5456V43.3479H81.4351V43.3468Z" fill="url(#paint0_linear_427_278)"/>
<path d="M89.3779 27.2942C89.3779 27.2942 91.8695 22.2931 95.3313 23.6827C95.3313 23.6827 97.8913 24.2603 97.8913 27.8178V43.5562H91.4283V28.145C91.4283 28.145 91.0904 25.923 89.3779 27.2942Z" fill="url(#paint1_linear_427_278)"/>
<path d="M78.2023 28.7216L75.1425 29.3273C75.1425 26.3852 73.932 24.9147 71.5122 24.9147C70.0258 24.9147 69.2825 25.6046 69.2825 26.9844C69.2825 27.9993 70.5614 29.093 73.1203 30.2644C77.0386 32.074 78.9977 34.3715 78.9977 37.1571C78.9977 41.5956 76.5029 43.8154 71.5133 43.8154C66.2347 43.8154 63.5964 41.5956 63.5964 37.1571L66.8464 36.4153C66.8008 36.845 66.778 37.2488 66.778 37.6256C66.778 38.7712 67.2017 39.7666 68.0482 40.6131C68.8946 41.4596 69.8954 41.8828 71.0471 41.8828C72.5684 41.8828 73.329 41.154 73.329 39.6954C73.329 38.7194 72.1022 37.6386 69.6476 36.4542C65.9478 34.6576 64.0984 32.3536 64.0984 29.5421C64.0984 27.6808 64.8069 26.1552 66.2249 24.9632C67.6429 23.7713 69.4629 23.1764 71.6871 23.1764C75.638 23.1775 77.81 25.0248 78.2023 28.7216Z" fill="url(#paint2_linear_427_278)"/>
<path d="M69.4434 25.6964C69.4434 25.6964 64.4429 28.51 66.0652 34.0314C66.0652 34.0314 67.8385 35.6725 69.3597 36.2977C70.8799 36.9228 71.9947 37.7822 71.9947 37.7822C71.9947 37.7822 73.3127 38.7463 73.3127 39.6058C73.3127 40.4652 73.3638 41.0644 72.2489 41.7154C72.2489 41.7154 70.2974 42.3147 68.7262 41.194C67.155 40.0733 66.8508 38.5628 66.8508 38.5628C66.8508 38.5628 66.6628 37.1042 66.8454 36.4143L63.5954 37.156C63.5954 37.156 63.3781 41.0633 66.4444 42.7044C66.4444 42.7044 68.2938 44.2149 73.4638 43.6686C73.4638 43.6686 78.2273 43.4084 78.8608 38.7453C78.8608 38.7453 79.9246 35.2547 76.7072 32.5458C76.7072 32.5458 75.2371 31.0612 72.475 29.9675C69.7129 28.8749 68.8436 27.2079 69.4434 25.6964Z" fill="url(#paint3_linear_427_278)"/>
<path d="M59.3948 36.1421L61.9353 36.9821C61.6701 41.5254 59.296 43.797 54.8138 43.797C49.006 43.797 46.1016 40.5235 46.1016 33.9752C46.1016 30.7989 46.8741 28.1958 48.4182 26.1649C49.9622 24.134 51.9387 23.1191 54.3466 23.1191C59.3829 23.1191 61.9005 26.79 61.9005 34.1318H52.7047C52.7047 39.2872 53.863 41.8644 56.1796 41.8644C58.3463 41.8644 59.4296 40.4069 59.4296 37.4907C59.4296 37.0987 59.4177 36.6496 59.3948 36.1421ZM52.6873 31.9249H56.4556C56.4556 27.3428 55.845 25.0518 54.6236 25.0518C53.5175 25.0518 52.8949 26.7501 52.7569 30.1478L52.6873 31.9249Z" fill="url(#paint4_linear_427_278)"/>
<path d="M53.9008 25.2795C53.9008 25.2795 48.5537 26.9206 46.1469 32.495C46.097 33.1115 46.0741 33.7917 46.0959 34.5269C46.1317 35.6908 46.2741 36.7251 46.4501 37.6008C46.5186 37.8998 46.5935 38.1611 46.6652 38.3824C46.7793 38.7344 46.888 38.9957 46.9315 39.0983C47.0108 39.2861 47.0771 39.4222 47.1346 39.5409C47.2574 39.7947 47.3867 40.0613 47.578 40.3744C47.7029 40.5785 47.8811 40.8463 48.1223 41.1432C48.2343 41.2954 48.3929 41.493 48.6037 41.7035C48.8373 41.9356 49.034 42.0825 49.2241 42.225C49.5154 42.442 49.7729 42.6007 49.9587 42.7065C50.2379 42.8663 50.4585 42.9667 50.5161 42.9926C50.7269 43.0877 50.8779 43.1427 51.1496 43.2399C51.4462 43.3468 51.594 43.3997 51.7961 43.4483C51.8624 43.4645 51.9928 43.4893 52.2525 43.539C52.5089 43.5886 52.636 43.6135 52.7338 43.6297C53.0359 43.6826 53.263 43.7031 53.6085 43.7333C54.0692 43.7743 54.2996 43.7948 54.6093 43.7981C54.9494 43.8024 55.208 43.7808 55.7241 43.7463C56.2511 43.7106 56.4358 43.6826 56.5858 43.6556C56.7346 43.6275 56.9215 43.5811 57.2953 43.4861C57.6137 43.4051 57.7767 43.3641 57.9157 43.3165C58.0016 43.2874 58.2515 43.1999 58.5623 43.0434C58.8078 42.9192 58.9784 42.8102 59.2207 42.6525C59.4424 42.509 59.6238 42.3816 59.7532 42.2876C59.9879 42.0803 60.241 41.8223 60.4877 41.5059C61.0755 40.7523 61.3711 39.989 61.5265 39.4481C61.5265 39.4481 61.859 38.5228 61.9339 36.98L59.3935 36.14C59.4185 36.4466 59.4337 36.7727 59.437 37.1171C59.4413 37.6796 59.4109 38.1989 59.3609 38.6664C59.3565 38.7992 59.2642 40.6703 57.8027 41.5059C57.1551 41.8763 56.5162 41.8849 56.1783 41.8611C56.1783 41.8611 54.5843 41.9486 53.7226 40.2287C52.8609 38.5098 52.623 34.9826 52.7034 34.1285C52.7034 34.1285 52.937 32.2067 54.6853 31.9983L52.686 31.9228C52.6871 31.9249 52.6339 26.0094 53.9008 25.2795Z" fill="url(#paint5_linear_427_278)"/>
<path d="M23.7981 17.3774C23.4189 17.9292 23.1951 18.6018 23.1951 19.3284C23.1951 21.2016 24.6717 22.7197 26.4939 22.7197C28.3161 22.7197 29.7928 21.2016 29.7928 19.3284C29.7928 18.5867 29.5581 17.9022 29.1648 17.3429L26.507 21.9337L23.7981 17.3774Z" fill="url(#paint6_linear_427_278)"/>
<path d="M26.5786 22.8039C28.3832 22.8039 29.846 21.2401 29.846 19.3112C29.846 17.3822 28.3832 15.8184 26.5786 15.8184C24.7741 15.8184 23.3113 17.3822 23.3113 19.3112C23.3113 21.2401 24.7741 22.8039 26.5786 22.8039Z" fill="#08974A"/>
<path d="M29.4822 17.6992C29.1193 16.9111 28.4532 16.2935 27.6035 15.989C26.2583 15.5075 25.0446 16.2244 24.1558 17.2566C24.1558 17.2566 28.3815 17.655 29.1084 21.3043C29.0997 21.2578 29.4246 20.8411 29.4561 20.7763C29.7136 20.257 29.7908 19.6394 29.7843 19.0639C29.7799 18.5759 29.6734 18.1138 29.4822 17.6992Z" fill="url(#paint7_linear_427_278)"/>
<path d="M28.3032 16.3874C28.3032 16.3874 24.348 17.4369 24.1568 21.6336C24.1568 21.6336 22.3553 19.7441 23.7982 17.3775C25.2412 15.0109 27.9838 15.9944 28.3032 16.3874Z" fill="url(#paint8_linear_427_278)"/>
<path d="M23.1951 19.3284C23.1951 19.3284 26.2484 22.0287 29.5919 19.4882C29.6592 19.4375 29.7266 19.3846 29.794 19.3284C29.794 19.3284 30.0863 22.4012 26.5798 22.8039C26.5788 22.8039 22.9354 22.2025 23.1951 19.3284Z" fill="url(#paint9_linear_427_278)"/>
<path d="M25.0498 22.4195C25.0498 22.4195 28.1118 21.3053 28.303 16.3874C28.303 16.3874 30.9826 18.1581 29.2603 20.9771C29.2592 20.9771 28.3661 23.5348 25.0498 22.4195Z" fill="url(#paint10_linear_427_278)"/>
<path d="M38.2813 15.0345C36.2765 15.0227 34.2718 15.0119 32.267 15C31.8683 15.8022 31.4684 16.6033 31.0696 17.4055L31.8574 17.1885L32.2866 18.8361L31.2272 19.1276C31.2402 19.2733 31.2467 19.4213 31.2467 19.5703C31.2467 19.8682 31.2207 20.1598 31.1728 20.4426L32.2029 20.8281L31.6357 22.4314L30.6056 22.0459C30.3905 22.4292 30.1275 22.7801 29.8255 23.09C29.9254 23.3297 30.0243 23.5694 30.1243 23.8101C29.7277 24.1027 29.3311 24.3953 28.9345 24.6879C28.778 24.4817 28.6226 24.2755 28.4672 24.0703C28.201 24.1988 27.9218 24.3014 27.6317 24.378C27.5034 24.6393 27.3741 24.8995 27.2459 25.1608C27.1753 25.3044 27.1036 25.448 27.033 25.5927C26.7472 26.1724 26.4603 26.7533 26.1746 27.3331L24.8283 24.2625C24.536 24.1578 24.2556 24.0261 23.9916 23.8684L23.2864 24.7322L22.0151 23.6352L22.7203 22.7715C22.4454 22.4368 22.2129 22.0643 22.0314 21.6616L20.9731 21.9531L20.5439 20.3055L21.6033 20.014C21.5903 19.8682 21.5837 19.7203 21.5837 19.5713C21.5837 19.2733 21.6098 18.9818 21.6576 18.699L20.6265 18.3135L21.1937 16.7102L21.5783 16.8538C21.3121 16.247 21.0448 15.6402 20.7786 15.0345C18.7738 15.0345 16.7691 15.0345 14.7643 15.0345C12.8432 24.5562 10.9222 34.0789 9 43.6005C11.799 43.6005 14.5992 43.6005 17.3982 43.6005C17.8448 39.1296 18.2925 34.6587 18.7391 30.1878C20.7079 33.0392 22.6758 35.8895 24.6446 38.7409C25.4976 39.9771 26.3506 41.2123 27.2046 42.4485C27.8338 41.2943 28.464 40.1413 29.0931 38.9871C29.819 37.6569 30.5448 36.3268 31.2706 34.9966C32.0758 33.5207 32.881 32.0459 33.6861 30.57C34.7564 35.0355 35.8256 39.4999 36.8959 43.9654C39.621 43.9773 42.3473 43.9881 45.0724 44C42.808 34.3445 40.5446 24.6901 38.2813 15.0345Z" fill="url(#paint11_linear_427_278)"/>
<path d="M33.686 30.5689C33.686 30.5689 39.9176 20.8356 41.5649 29.3003C42.7232 34.1998 43.8804 39.0994 45.0387 44C42.3135 44 39.5873 44 36.8621 44C35.8027 39.5226 34.7444 35.0463 33.686 30.5689Z" fill="url(#paint12_linear_427_278)"/>
<path d="M18.7391 30.1878C18.7391 30.1878 12.9845 29.6555 10.2474 37.3309L9 43.6005H17.3982L18.7391 30.1878Z" fill="url(#paint13_linear_427_278)"/>
<defs>
<filter id="filter0_d_427_278" x="0" y="0" width="107" height="66" filterUnits="userSpaceOnUse" color-interpolation-filters="sRGB">
<feFlood flood-opacity="0" result="BackgroundImageFix"/>
<feColorMatrix in="SourceAlpha" type="matrix" values="0 0 0 0 0 0 0 0 0 0 0 0 0 0 0 0 0 0 127 0" result="hardAlpha"/>
<feOffset dy="4"/>
<feGaussianBlur stdDeviation="2"/>
<feComposite in2="hardAlpha" operator="out"/>
<feColorMatrix type="matrix" values="0 0 0 0 0.0629423 0 0 0 0 0.516667 0 0 0 0 0.0107639 0 0 0 1 0"/>
<feBlend mode="normal" in2="BackgroundImageFix" result="effect1_dropShadow_427_278"/>
<feBlend mode="normal" in="SourceGraphic" in2="effect1_dropShadow_427_278" result="shape"/>
</filter>
<linearGradient id="paint0_linear_427_278" x1="89.4562" y1="24.8581" x2="89.7322" y2="39.1633" gradientUnits="userSpaceOnUse">
<stop stop-color="#6FC171"/>
<stop offset="1" stop-color="#08974A"/>
</linearGradient>
<linearGradient id="paint1_linear_427_278" x1="98.5406" y1="33.8761" x2="88.979" y2="33.2346" gradientUnits="userSpaceOnUse">
<stop stop-color="#6FC171"/>
<stop offset="1" stop-color="#08974A"/>
</linearGradient>
<linearGradient id="paint2_linear_427_278" x1="71.0624" y1="25.2259" x2="71.3385" y2="39.5346" gradientUnits="userSpaceOnUse">
<stop stop-color="#6FC171"/>
<stop offset="1" stop-color="#08974A"/>
</linearGradient>
<linearGradient id="paint3_linear_427_278" x1="79.8146" y1="49.2193" x2="67.0329" y2="31.3763" gradientUnits="userSpaceOnUse">
<stop stop-color="#6FC171"/>
<stop offset="1" stop-color="#08974A"/>
</linearGradient>
<linearGradient id="paint4_linear_427_278" x1="53.8364" y1="25.5697" x2="54.1125" y2="39.8781" gradientUnits="userSpaceOnUse">
<stop stop-color="#6FC171"/>
<stop offset="1" stop-color="#08974A"/>
</linearGradient>
<linearGradient id="paint5_linear_427_278" x1="56.3094" y1="41.7438" x2="48.8579" y2="26.9538" gradientUnits="userSpaceOnUse">
<stop stop-color="#6FC171"/>
<stop offset="1" stop-color="#08974A"/>
</linearGradient>
<linearGradient id="paint6_linear_427_278" x1="23.1947" y1="20.031" x2="29.7934" y2="20.031" gradientUnits="userSpaceOnUse">
<stop stop-color="#F8EB32"/>
<stop offset="1" stop-color="#FEDD10"/>
</linearGradient>
<linearGradient id="paint7_linear_427_278" x1="24.1565" y1="18.5704" x2="29.7858" y2="18.5704" gradientUnits="userSpaceOnUse">
<stop stop-color="#6FC171"/>
<stop offset="1" stop-color="#08974A"/>
</linearGradient>
<linearGradient id="paint8_linear_427_278" x1="23.2381" y1="18.7401" x2="28.3029" y2="18.7401" gradientUnits="userSpaceOnUse">
<stop stop-color="#6FC171"/>
<stop offset="1" stop-color="#08974A"/>
</linearGradient>
<linearGradient id="paint9_linear_427_278" x1="28.2707" y1="21.0839" x2="23.3569" y2="20.0563" gradientUnits="userSpaceOnUse">
<stop stop-color="#6FC171"/>
<stop offset="1" stop-color="#08974A"/>
</linearGradient>
<linearGradient id="paint10_linear_427_278" x1="28.9496" y1="19.8959" x2="25.9051" y2="19.2592" gradientUnits="userSpaceOnUse">
<stop stop-color="#6FC171"/>
<stop offset="1" stop-color="#08974A"/>
</linearGradient>
<linearGradient id="paint11_linear_427_278" x1="16.3407" y1="17.766" x2="33.4465" y2="45.1829" gradientUnits="userSpaceOnUse">
<stop stop-color="#6FC171"/>
<stop offset="1" stop-color="#08974A"/>
</linearGradient>
<linearGradient id="paint12_linear_427_278" x1="37.0922" y1="32.747" x2="45.0578" y2="45.5142" gradientUnits="userSpaceOnUse">
<stop stop-color="#6FC171"/>
<stop offset="1" stop-color="#08974A"/>
</linearGradient>
<linearGradient id="paint13_linear_427_278" x1="13.3475" y1="34.5832" x2="16.3856" y2="48.203" gradientUnits="userSpaceOnUse">
<stop stop-color="#6FC171"/>
<stop offset="1" stop-color="#08974A"/>
</linearGradient>
</defs>
</svg>
